PathFileType	4	(x/y/z)	S06_PSF_T05
DataRate	CameraRate	NumFrames	NumMarkers	Units	OrigDataRate	OrigDataStartFrame	OrigNumFrames
240	240	4	51	mm	240	149	397
Frame#	Time	Sternum			R.Acromium			L.Acromium			Top.Head			R.ASIS			L.ASIS			R.PSIS			L.PSIS			R.Great.Tro			L.Great.Tro			R.Iliac.Crest			L.Iliac.Crest			V.Sacral			R.Thigh.Upper.Post			R.Thigh.Lower.Ant			R.Thigh.Lower.Post			R.Thigh.Upper.Ant			R.Knee.Lat			R.Knee.Med			R.Shank.Upper.Post			R.Shank.Lower.Ant			R.Shank.Lower.Post			R.Shank.Upper.Ant			R.Ankle.Lat			R.Ankle.Med			R.Heel.Upper			R.Heel.Med			R.Heel.Lat			R.Toe.Lat			R.Toe.Med			R.Toe.Tip			L.Thigh.Upper.Post			L.Thigh.Lower.Ant			L.Thigh.Lower.Post			L.Thigh.Upper.Ant			L.Knee.Lat			L.Knee.Med			L.Shank.Upper.Post			L.Shank.Lower.Ant			L.Shank.Lower.Post			L.Shank.Upper.Ant			L.Ankle.Lat			L.Ankle.Med			L.Heel.Upper			L.Heel.Med			L.Heel.Lat			L.Toe.Lat			L.Toe.Med			L.Toe.Tip			Cervical.Spine			Back			
		X1	Y1	Z1	X2	Y2	Z2	X3	Y3	Z3	X4	Y4	Z4	X5	Y5	Z5	X6	Y6	Z6	X7	Y7	Z7	X8	Y8	Z8	X9	Y9	Z9	X10	Y10	Z10	X11	Y11	Z11	X12	Y12	Z12	X13	Y13	Z13	X14	Y14	Z14	X15	Y15	Z15	X16	Y16	Z16	X17	Y17	Z17	X18	Y18	Z18	X19	Y19	Z19	X20	Y20	Z20	X21	Y21	Z21	X22	Y22	Z22	X23	Y23	Z23	X24	Y24	Z24	X25	Y25	Z25	X26	Y26	Z26	X27	Y27	Z27	X28	Y28	Z28	X29	Y29	Z29	X30	Y30	Z30	X31	Y31	Z31	X32	Y32	Z32	X33	Y33	Z33	X34	Y34	Z34	X35	Y35	Z35	X36	Y36	Z36	X37	Y37	Z37	X38	Y38	Z38	X39	Y39	Z39	X40	Y40	Z40	X41	Y41	Z41	X42	Y42	Z42	X43	Y43	Z43	X44	Y44	Z44	X45	Y45	Z45	X46	Y46	Z46	X47	Y47	Z47	X48	Y48	Z48	X49	Y49	Z49	X50	Y50	Z50	X51	Y51	Z51	

149	0.61667	-648.9	1270.9	369.37	-791.51	1472.2	534.35	-780.91	1478.3	182.55	-753.52	1794.4	358.68	-699.85	1037.4	489.95	-683.3	1029.9	236.97	NaN	NaN	NaN	-890.39	1058.5	308.45	-753.95	960.57	537.47	-791.9	959.67	179.54	-791.91	1109.4	518.03	-754.08	1104.7	198.1	-906.53	1021.7	350.48	-692.63	719.39	518.35	-614.62	656.74	480.34	-679.89	632.97	492.6	-620.95	745.39	502.26	-625.63	537.01	478.69	-624.32	544.65	349.72	-620.81	305.7	468.94	-547.93	255.66	448.11	-609.33	229.88	451.83	-561.54	329.8	463.54	-549.93	109.28	425	-534.56	125.89	340.6	-600.81	67.28	370.39	-586.48	38.747	339.55	-590.7	35.239	403.99	-415.65	52.223	450.67	-390.39	74.303	335.75	-328.98	99.119	383.93	-796.05	704.55	201.15	-760.89	612.53	251.6	-831.29	621.73	216.5	-729.36	700.87	230.23	-879.89	532.83	234.87	-840.71	526.93	352	-1043.2	366.41	252.71	-1025.7	279.61	254.98	-1088.6	310.91	272.57	-984.75	336.37	241.02	-1129.9	170.21	276.04	-1110.7	184.26	362.08	-1217.6	175.88	319.8	-1228.9	152.09	352.69	-1225.3	150.97	290.8	-1078.8	50.916	260.64	-1067.2	50.618	380.77	-998.06	40.159	332.37	-839.62	1529	356.97	-891.77	1254.9	348.33
150	0.62083	-643.09	1271.5	369.67	-785.86	1472.7	534.71	-775.08	1478.7	182.84	-747.84	1794.9	358.92	-693.76	1038.1	490.22	-677.34	1030.4	237.35	NaN	NaN	NaN	-884.34	1058.9	308.61	-747.88	961.3	537.8	-785.62	959.77	179.82	-785.83	1109.9	518.29	-748.06	1105.2	198.35	-900.46	1022.2	350.7	-686.65	719.97	518.87	-609.09	657.22	480.82	-674.37	633.52	493.31	-615.1	745.94	502.65	-620.52	537.29	479.21	-619.89	544.71	350.26	-617.46	305.82	469.62	-545.08	255.27	448.47	-606.63	229.94	452.54	-558.02	329.5	463.96	-548.59	108.95	425.34	-533.22	125.52	340.89	-600.08	67.764	370.65	-586.17	39.133	339.7	-590.41	35.494	404.14	-415.03	50.388	450.65	-389.56	72.349	335.73	-327.68	96.219	383.86	-787.96	704.21	200.8	-751.95	612.34	250.82	-822.47	621.07	215.91	-721.14	700.99	229.69	-870.62	532.12	234.09	-830.72	525.76	351.04	-1035.7	367.99	252.12	-1019.5	280.98	254.1	-1081.9	313.15	271.96	-977.67	337.17	240.15	-1125	173.01	275.28	-1105.6	186.85	361.3	-1212.1	181.2	319.16	-1224.1	158.05	352.22	-1220.6	156.49	290.3	-1077.5	51.899	260.5	-1066	51.727	380.55	-997.62	39.811	332.38	-834.05	1529.4	357.3	-885.82	1255.2	348.62
151	0.625	-637.3	1272.2	369.95	-780.2	1473.2	535.06	-769.28	1479.2	183.14	-742.15	1795.4	359.15	-687.69	1038.8	490.49	-671.43	1030.9	237.73	NaN	NaN	NaN	-878.34	1059.4	308.79	-741.84	962.09	538.14	-779.38	959.87	180.11	-779.76	1110.6	518.53	-742.1	1105.7	198.6	-894.44	1022.7	350.93	-680.69	720.6	519.41	-603.57	657.76	481.34	-668.88	634.13	494.05	-609.27	746.56	503.1	-615.47	537.59	479.75	-615.47	544.82	350.84	-614.19	305.97	470.34	-542.31	254.92	448.85	-604.02	230.04	453.27	-554.59	329.23	464.4	-547.32	108.67	425.68	-531.97	125.22	341.21	-599.41	68.216	370.92	-585.88	39.518	339.86	-590.14	35.728	404.29	-414.47	48.684	450.65	-388.79	70.551	335.72	-326.48	93.5	383.83	-779.74	703.85	200.42	-742.82	612.14	250.03	-813.48	620.38	215.3	-712.8	701.12	229.14	-861.13	531.36	233.28	-820.51	524.55	350.04	-1027.9	369.6	251.46	-1013	282.37	253.18	-1074.8	315.43	271.28	-970.33	337.98	239.25	-1119.8	175.89	274.46	-1100.3	189.54	360.49	-1206.1	186.68	318.41	-1218.9	164.18	351.64	-1215.5	162.2	289.69	-1076	53.054	260.32	-1064.7	52.983	380.29	-997.08	39.439	332.37	-828.49	1529.8	357.64	-879.9	1255.6	348.9
152	0.62917	-631.53	1273	370.21	-774.54	1473.8	535.41	-763.5	1479.7	183.43	-736.48	1795.8	359.38	-681.65	1039.6	490.74	-665.58	1031.4	238.09	NaN	NaN	NaN	-872.38	1059.9	308.97	-735.82	962.94	538.48	-773.2	959.96	180.41	-773.71	1111.2	518.77	-736.2	1106.3	198.85	-888.47	1023.3	351.17	-674.76	721.28	519.99	-598.08	658.34	481.9	-663.42	634.77	494.83	-603.46	747.21	503.59	-610.48	537.92	480.32	-611.04	544.98	351.45	-611.01	306.15	471.09	-539.63	254.59	449.24	-601.49	230.17	454	-551.24	328.99	464.87	-546.14	108.42	426.02	-530.8	124.97	341.53	-598.79	68.634	371.19	-585.59	39.895	340.01	-589.88	35.943	404.44	-413.96	47.115	450.67	-388.09	68.905	335.72	-325.39	90.963	383.81	-771.39	703.45	200.03	-733.53	611.95	249.21	-804.32	619.65	214.68	-704.34	701.26	228.57	-851.41	530.56	232.44	-810.09	523.31	349.02	-1019.9	371.22	250.73	-1006.2	283.8	252.23	-1067.5	317.75	270.53	-962.71	338.81	238.32	-1114.3	178.88	273.59	-1094.7	192.31	359.64	-1199.9	192.33	317.57	-1213.3	170.49	350.92	-1210.1	168.1	288.96	-1074.3	54.399	260.08	-1063.1	54.401	379.97	-996.42	39.048	332.32	-822.93	1530.2	357.98	-874	1256	349.19
